<svg xmlns="http://www.w3.org/2000/svg" viewBox="0 0 43.22 43.24">
<path d="M1 1473 c0 -180 4 -319 8 -308 5 11 11 19 15 18 15 -7 20 -2 6 7 -12
8 -12 10 5 10 15 0 16 3 7 9 -18 11 9 78 41 104 12 10 16 16 10 12 -26 -13 31
85 89 153 28 33 51 46 27 15 -13 -16 -12 -17 3 -5 9 8 15 19 12 26 -2 6 10 25
27 41 18 17 29 24 25 18 -10 -18 9 -16 24 2 10 12 10 15 0 15 -7 0 0 10 16 22
16 13 35 22 42 20 8 -2 11 1 8 6 -5 9 14 30 43 47 10 6 12 4 6 -5 -6 -10 -4
-12 9 -7 10 4 21 7 24 7 4 0 1 4 -6 9 -11 7 -10 9 3 14 9 4 13 3 10 -3 -3 -6
-4 -10 -1 -10 13 0 115 54 111 59 -2 3 7 7 18 7 12 1 60 10 107 21 l85 20
-387 2 -388 2 1 -328z m614 297 c-27 -12 -43 -12 -25 0 8 5 22 9 30 9 10 0 8
-3 -5 -9z m-85 -35 c-14 -8 -29 -14 -35 -14 -5 0 1 6 15 14 14 8 30 14 35 14
6 0 -1 -6 -15 -14z M1115 1775 c50 -13 112 -32 138 -44 27 -12 54 -18 59 -14 6 3 8 1 5
-4 -4 -6 0 -14 9 -17 24 -9 31 -7 14 5 -13 9 -13 10 0 6 8 -2 15 -10 15 -17 0
-7 6 -15 14 -18 9 -3 11 0 6 8 -5 7 6 5 25 -6 51 -29 190 -163 184 -178 -3 -7
3 -19 13 -27 16 -13 17 -12 4 4 -7 9 -10 17 -5 17 11 -1 57 -61 57 -75 0 -5 8
-16 18 -23 20 -14 27 -38 7 -26 -7 4 -8 3 -4 -4 4 -7 13 -12 20 -12 8 0 16 -9
19 -20 3 -11 1 -18 -4 -14 -5 3 -6 -2 -3 -10 3 -9 10 -13 15 -10 5 3 6 -3 2
-12 -4 -11 -2 -15 4 -11 5 4 15 -5 22 -19 14 -31 14 -44 0 -24 -8 12 -9 11 -6
-5 2 -11 9 -19 15 -18 7 2 12 -2 12 -7 0 -6 -4 -10 -10 -10 -6 0 -5 -10 2 -25
6 -13 15 -22 19 -19 5 3 9 -2 9 -11 0 -10 -5 -13 -12 -9 -7 4 -8 3 -4 -4 4 -7
11 -31 15 -54 5 -25 9 116 10 345 l2 388 -388 -2 -388 -1 90 -23z m42 9 c-3
-3 -12 -4 -19 -1 -8 3 -5 6 6 6 11 1 17 -2 13 -5z m63 -19 c33 -19 21 -19 -21
0 -19 8 -27 14 -19 14 8 0 26 -6 40 -14z m66 -31 c18 -14 18 -14 -6 -3 -31 14
-36 19 -24 19 6 0 19 -7 30 -16z M750 1775 c-258 -42 -484 -198 -620 -427 -79 -132 -120 -286 -120
-447 0 -239 86 -452 247 -616 176 -179 388 -268 643 -268 176 0 319 40 477
135 77 45 211 179 266 263 111 173 161 385 137 579 -29 236 -149 456 -325 599
-78 63 -239 142 -340 167 -106 27 -257 33 -365 15z m366 -108 c116 -35 241
-107 333 -191 99 -92 199 -272 227 -411 25 -120 16 -304 -20 -410 -93 -275
-330 -484 -607 -536 -87 -16 -239 -14 -325 4 -269 57 -495 262 -585 529 -40
117 -51 288 -26 405 63 292 279 526 562 609 115 33 332 34 441 1z M745 1665 c-88 -17 -143 -36 -225 -81 -57 -32 -90 -55 -174 -127
l-21 -18 25 12 c25 12 25 12 6 -9 -10 -12 -23 -19 -28 -16 -4 3 -7 2 -6 -3 2
-4 0 -8 -3 -8 -16 0 -37 -28 -32 -42 4 -10 2 -14 -5 -10 -6 4 -21 -7 -33 -25
-13 -17 -17 -28 -9 -23 10 6 12 4 7 -9 -4 -10 -7 -21 -7 -24 0 -4 -4 -1 -9 6
-7 11 -9 11 -14 -1 -8 -21 23 -15 35 6 5 10 14 15 20 11 6 -4 6 1 -1 14 -15
28 -14 40 2 18 12 -16 14 -16 32 5 11 12 14 19 6 14 -9 -5 -12 -3 -9 6 3 8 11
14 19 14 8 1 13 7 11 14 -1 7 2 10 9 5 8 -5 9 -3 4 6 -6 9 -4 11 5 5 8 -5 11
-4 7 2 -3 5 11 27 33 48 22 21 37 42 34 46 -2 4 1 11 7 15 8 4 9 3 5 -5 -10
-15 36 -8 62 11 22 15 25 30 9 40 -7 4 -7 8 -2 8 6 0 17 -5 25 -10 12 -8 12
-10 1 -10 -8 0 -12 -2 -9 -5 3 -3 35 8 72 25 36 17 96 37 132 46 93 21 261 19
354 -5 51 -13 82 -16 98 -10 16 6 31 4 50 -7 24 -14 12 -12 -27 4 -9 3 -12 1
-8 -5 5 -7 -1 -10 -15 -7 -23 4 -23 4 0 -6 13 -5 29 -7 34 -3 7 4 8 1 3 -7 -5
-9 -2 -10 12 -6 11 3 27 -1 39 -10 18 -15 18 -15 -3 -5 -29 15 -43 13 -18 -1
11 -7 29 -13 40 -14 11 -1 19 -7 17 -14 -2 -8 3 -10 13 -6 10 4 39 -17 88 -65
40 -39 66 -67 58 -63 -9 5 -12 3 -7 -5 4 -6 11 -9 16 -6 5 3 14 -5 21 -17 12
-22 11 -22 -7 -8 -18 14 -18 14 -5 -2 7 -10 20 -18 27 -18 8 0 14 -5 14 -11 0
-5 -6 -7 -12 -3 -8 4 -10 3 -5 -2 5 -5 14 -9 19 -9 6 0 13 -6 16 -14 3 -9 0
-11 -8 -6 -9 5 -11 4 -6 -4 4 -6 12 -8 18 -5 8 5 9 1 5 -10 -4 -10 -2 -26 4
-38 10 -19 11 -19 24 -2 11 16 14 15 28 -12 24 -43 20 -20 -3 27 -12 22 -25
37 -30 34 -5 -3 -14 3 -19 14 -14 26 -14 34 0 25 7 -4 3 8 -7 26 -22 39 -169
190 -185 190 -5 0 -7 -5 -3 -12 4 -7 3 -8 -5 -4 -6 4 -9 11 -6 15 7 12 -58 53
-142 90 -125 54 -315 74 -458 46z m202 -1 c-7 -8 -118 -6 -125 1 -3 3 25 5 63
5 38 0 65 -3 62 -6z m-132 -14 c8 -13 -35 -13 -55 0 -11 7 -7 10 17 10 17 0
35 -4 38 -10z m210 0 c-28 -12 -65 -12 -65 0 0 6 19 10 43 9 32 0 37 -2 22 -9z
m-280 -10 c8 -13 -15 -13 -35 0 -12 8 -11 10 7 10 12 0 25 -4 28 -10z m335 0
c-8 -5 -24 -10 -35 -10 -17 0 -17 2 -5 10 8 5 24 10 35 10 17 0 17 -2 5 -10z
m-382 -8 c17 -11 -50 -32 -80 -25 -16 3 -19 2 -10 -4 17 -13 -54 -46 -74 -35
-20 11 71 55 98 46 15 -4 18 -3 13 6 -5 9 -1 10 15 5 15 -5 20 -4 16 4 -8 13
3 14 22 3z m422 -3 c-12 -8 -8 -9 15 -5 17 3 24 3 17 0 -6 -3 -10 -9 -7 -14 3
-4 -11 -3 -30 3 -35 10 -31 27 5 27 13 0 13 -1 0 -11z m206 -90 c3 -6 -5 -3
-20 6 -14 10 -26 19 -26 22 0 7 39 -17 46 -28z m-830 5 c-1 -9 -11 -21 -21
-26 -14 -8 -16 -8 -10 2 6 10 4 12 -8 7 -27 -10 -20 1 11 17 15 8 28 15 29 16
1 0 0 -7 -1 -16z m995 -149 c27 -33 49 -63 49 -68 0 -5 -16 13 -36 40 -20 26
-59 70 -87 96 -43 40 -45 44 -13 21 21 -16 61 -55 87 -89z m-1081 101 c0 -2
-8 -10 -17 -17 -16 -13 -17 -12 -4 4 13 16 21 21 21 13z m1163 -247 c-8 -8
-13 -7 -18 2 -5 8 -4 10 3 5 7 -4 12 -2 12 5 0 7 3 9 7 6 4 -4 2 -12 -4 -18z M560 1585 c-14 -8 -20 -14 -15 -14 6 0 21 6 35 14 14 8 21 14 15 14
-5 0 -21 -6 -35 -14z M749 1606 c-271 -57 -480 -259 -555 -537 -23 -87 -23 -243 0 -334 56
-214 200 -391 391 -481 109 -50 185 -67 310 -68 133 0 205 17 330 78 144 71
272 204 334 348 77 181 70 423 -18 603 -93 188 -259 326 -457 380 -83 22 -254
28 -335 11z m336 -310 c141 -65 181 -242 78 -345 -33 -33 -34 -36 -17 -46 72
-39 122 -146 109 -228 -16 -91 -80 -164 -164 -187 -20 -5 -151 -10 -291 -10
l-255 -1 0 180 0 179 30 43 c53 76 76 83 270 89 181 6 203 11 224 57 15 32 14
82 -2 113 -24 49 -67 60 -234 60 l-153 0 0 -74 0 -74 -65 -36 c-36 -20 -68
-36 -70 -36 -3 0 -5 77 -5 170 l0 170 248 0 c238 0 249 -1 297 -24z M550 1248 c0 -35 4 -68 8 -75 4 -7 6 19 4 57 l-4 70 213 -2 214 -3
-209 -2 -209 -3 6 -83 c4 -45 7 -101 7 -125 l0 -43 30 16 c28 14 29 19 33 88
l3 72 2 -76 2 -75 -35 -17 c-20 -9 -38 -17 -40 -17 -2 0 -6 28 -8 63 -3 61 -3
60 -5 -16 -2 -70 0 -77 13 -63 8 8 31 20 50 27 l35 13 0 77 c0 61 3 78 16 83
9 3 77 6 152 6 214 0 279 -28 289 -125 6 -45 -18 -107 -39 -102 -7 1 -12 -3
-13 -10 0 -6 -4 -15 -9 -20 -5 -5 -6 -3 -2 5 9 15 1 15 -27 0 -14 -8 -84 -15
-192 -18 -157 -5 -172 -7 -203 -28 -31 -23 -69 -74 -41 -57 9 6 10 3 5 -11 -5
-10 -12 -41 -16 -69 l-9 -50 2 47 c1 26 -1 44 -6 39 -11 -11 -13 -144 -2 -148
6 -2 8 -35 5 -80 l-4 -78 -6 75 -6 75 -2 -87 -2 -88 225 0 c230 0 301 8 367
41 35 18 68 55 81 92 11 30 -1 18 -18 -17 -9 -19 -29 -42 -43 -52 -25 -15 -24
-14 5 15 49 49 65 151 36 227 -5 12 -3 15 6 9 15 -9 2 18 -24 50 -15 19 -16
19 -4 -5 12 -25 12 -25 -9 -6 -12 10 -19 22 -16 27 2 4 -8 15 -23 23 -27 13
-35 16 -50 16 -4 0 13 21 39 48 25 26 48 54 51 62 4 12 6 12 6 -2 1 -9 -16
-34 -36 -54 -23 -22 -29 -32 -16 -25 42 22 67 70 69 135 2 58 2 59 -5 16 l-8
-45 -1 48 c-1 26 2 47 7 47 5 0 7 10 3 22 -5 21 -6 21 -13 2 -6 -14 -8 -15 -8
-3 -1 9 -12 34 -26 55 l-25 39 31 -35 c19 -21 27 -26 20 -13 -18 36 -73 71
-136 88 -44 11 -113 15 -272 15 l-213 0 0 -62z m511 31 c19 -7 38 -16 44 -20
5 -5 -11 -3 -35 5 -25 8 -54 17 -65 19 -19 4 -19 5 1 6 12 0 36 -4 55 -10z
m-41 -55 c23 -9 39 -18 37 -20 -2 -3 -24 4 -48 15 -54 24 -45 27 11 5z m-102
-291 c-43 -2 -113 -2 -155 0 -43 1 -8 3 77 3 85 0 120 -2 78 -3z m-268 -18 c0
-2 -10 -9 -22 -15 -22 -11 -22 -10 -4 4 21 17 26 19 26 11z m330 -35 c37 -5
20 -6 -55 -3 -60 3 -112 7 -114 9 -7 7 112 2 169 -6z m-207 -7 c-7 -2 -19 -2
-25 0 -7 3 -2 5 12 5 14 0 19 -2 13 -5z m257 -9 c25 4 31 3 20 -4 -8 -5 -12
-10 -8 -10 3 0 14 -3 24 -7 13 -5 15 -3 9 8 -5 8 4 3 19 -11 35 -31 59 -76 53
-98 -4 -13 -5 -12 -6 4 0 11 -7 29 -15 40 -12 16 -12 11 1 -28 8 -26 19 -46
23 -43 4 2 5 -8 2 -23 -5 -24 -6 -25 -14 -7 -7 16 -8 15 -5 -7 2 -15 1 -25 -4
-23 -4 3 -10 1 -14 -5 -3 -5 -1 -10 6 -10 15 0 -17 -37 -45 -52 -14 -8 -17 -7
-11 3 6 9 4 10 -11 3 -10 -5 -103 -10 -206 -12 l-188 -3 -1 110 c-1 61 -2 116
-3 121 -1 6 10 17 24 24 14 7 24 17 23 22 -1 5 21 7 49 5 28 -2 48 1 45 6 -3
5 38 5 96 0 56 -4 118 -5 137 -3z m-340 -14 c0 -5 -5 -10 -11 -10 -5 0 -7 5
-4 10 3 6 8 10 11 10 2 0 4 -4 4 -10z m-43 -212 c-2 -29 -3 -6 -3 52 0 58 1
81 3 53 2 -29 2 -77 0 -105z m276 -75 c-45 -2 -122 -2 -170 0 -48 1 -11 3 82
3 94 0 133 -2 88 -3z m196 -33 c-9 -5 -36 -12 -60 -15 l-44 -5 50 14 c61 17
75 18 54 6z m-216 -27 c-62 -2 -165 -2 -230 0 -65 1 -14 3 112 3 127 0 180 -2
118 -3z M703 828 c-21 -22 -23 -34 -23 -126 l0 -102 171 0 c194 0 226 8 253
65 20 42 20 68 0 111 -28 58 -59 68 -229 72 -147 4 -150 3 -172 -20z M1080 836 c0 -2 8 -10 18 -17 15 -13 16 -12 3 4 -13 16 -21 21 -21
13z M1086 615 c-11 -8 -15 -15 -9 -15 6 0 16 7 23 15 16 19 11 19 -14 0z M1060 1176 c0 -2 8 -10 18 -17 15 -13 16 -12 3 4 -13 16 -21 21 -21
13z M1096 1105 c3 -22 1 -53 -5 -68 -6 -16 -7 -26 -1 -22 15 10 23 72 12
102 -10 26 -10 24 -6 -12z M1222 770 c0 -14 2 -19 5 -12 2 6 2 18 0 25 -3 6 -5 1 -5 -13z M1232 710 c0 -19 2 -27 5 -17 2 9 2 25 0 35 -3 9 -5 1 -5 -18z M1325 1503 c6 -5 37 -34 70 -63 51 -46 54 -48 20 -11 -22 23 -53 52
-70 63 -16 12 -25 17 -20 11z M402 1454 l-47 -47 50 43 c28 24 52 45 54 47 2 2 1 3 -3 3 -4 0 -28
-21 -54 -46z M189 1239 c-5 -11 -7 -29 -3 -41 4 -13 2 -18 -4 -14 -6 3 -14 1 -18
-5 -4 -7 -3 -9 3 -6 6 4 14 0 17 -9 11 -28 6 -38 -7 -19 -11 14 -16 15 -22 5
-5 -8 -4 -11 3 -6 6 3 14 -4 18 -16 7 -22 8 -22 19 6 9 21 10 38 3 57 -7 19
-6 34 2 46 10 16 10 16 5 -3 -3 -12 -3 -29 1 -38 5 -13 10 -10 24 16 20 37 20
37 -9 43 -13 2 -25 -3 -32 -16z m32 -22 c-10 -9 -11 -8 -5 6 3 10 9 15 12 12
3 -3 0 -11 -7 -18z M1577 1216 c-8 -21 12 -78 25 -70 6 4 8 -1 5 -12 -3 -11 0 -44 8 -74
8 -35 14 -45 14 -28 1 15 7 33 15 41 8 8 11 19 6 27 -5 8 -11 4 -18 -16 -9
-25 -11 -26 -11 -7 -1 12 5 28 12 35 17 15 10 48 -9 48 -8 0 -14 6 -14 13 0 8
-4 7 -11 -3 -8 -12 -9 -10 -5 10 6 31 -8 61 -17 36z m44 -97 c-5 -13 -10 -19
-10 -12 -1 15 10 45 15 40 3 -2 0 -15 -5 -28z M145 1118 c-13 -38 -24 -108 -23 -148 1 -48 3 -39 14 55 5 52 8 57
16 35 6 -16 6 -26 -1 -28 -5 -2 -7 -26 -4 -58 4 -37 2 -54 -6 -54 -6 0 -11 -9
-11 -20 0 -11 5 -20 11 -20 8 0 10 -16 6 -49 -4 -32 -2 -51 5 -53 8 -3 8 -13
1 -33 -10 -28 -11 -27 -17 30 -11 95 -13 103 -14 50 0 -63 19 -147 36 -153 6
-2 12 4 12 14 0 9 3 15 6 11 9 -9 -6 -48 -17 -42 -5 3 -6 -1 -2 -11 5 -14 8
-13 18 6 7 13 14 19 17 14 3 -5 3 -2 1 6 -33 115 -42 261 -23 360 10 54 5 100
-11 100 -5 0 -12 -6 -14 -12z m24 -41 c0 -21 -1 -21 -9 -2 -12 28 -12 37 0 30
6 -3 10 -16 9 -28z m-8 -380 c-13 -13 -15 1 -4 30 7 17 8 17 11 -1 2 -10 -1
-23 -7 -29z M1651 1063 c-1 -6 -6 -24 -12 -40 -12 -32 -18 -232 -7 -236 4 -1 11
-18 14 -37 4 -19 4 -32 0 -29 -4 4 -9 17 -11 29 -6 30 -15 38 -15 14 0 -10 -3
-30 -5 -44 -5 -22 -4 -22 4 -5 5 11 10 15 10 8 1 -6 4 -19 8 -29 5 -13 3 -15
-7 -9 -8 5 -11 3 -8 -6 9 -28 23 -13 34 36 14 57 16 297 4 335 -4 14 -8 20 -9
13z m9 -165 c0 -72 -3 -129 -6 -125 -14 14 -12 257 2 257 2 0 4 -59 4 -132z M1605 667 c3 -17 2 -26 -4 -23 -5 3 -12 -1 -15 -10 -3 -8 -2 -12 4
-9 14 9 12 -1 -5 -36 -9 -16 -20 -27 -25 -24 -10 6 -14 -8 -11 -34 2 -7 -2
-10 -8 -6 -7 4 -8 0 -4 -11 4 -11 3 -15 -5 -10 -6 3 -14 1 -18 -5 -5 -8 -3 -9
6 -4 8 5 11 3 8 -6 -3 -8 -10 -14 -16 -14 -6 0 -17 -6 -24 -14 -11 -11 -11
-13 1 -6 9 5 12 3 9 -6 -3 -8 -8 -12 -11 -9 -4 3 -35 -22 -69 -56 -81 -78
-123 -108 -203 -146 -103 -48 -196 -68 -316 -68 -205 0 -373 68 -526 214 -24
22 -43 36 -43 32 0 -5 -7 -3 -15 4 -21 18 -19 35 3 19 15 -13 16 -12 3 4 -7 9
-21 17 -30 17 -12 0 -13 2 -3 9 10 6 9 11 -4 22 -15 12 -17 12 -9 0 5 -10 4
-12 -4 -7 -6 4 -11 13 -10 19 3 25 -1 37 -12 34 -6 -1 -14 4 -17 12 -3 9 0 11
7 6 9 -5 9 -2 0 13 -7 12 -17 18 -22 15 -5 -3 -6 5 -2 18 4 17 3 20 -3 10 -8
-11 -11 -9 -17 9 -6 20 -9 21 -17 7 -11 -21 25 -109 43 -105 6 2 14 -3 17 -11
3 -9 0 -11 -8 -6 -9 6 -9 3 -1 -14 7 -11 17 -20 23 -18 6 1 13 -4 16 -12 3 -9
0 -11 -9 -6 -12 7 -12 5 -1 -6 7 -8 18 -14 24 -14 6 0 13 -6 16 -14 3 -9 0
-11 -9 -6 -8 5 -6 -1 5 -13 10 -12 23 -20 29 -19 6 1 12 -5 12 -13 0 -8 7 -14
14 -12 7 1 10 -1 7 -6 -8 -13 49 -63 121 -110 133 -85 278 -123 448 -116 172
6 308 53 445 154 59 44 134 114 101 95 -9 -5 -12 -3 -9 6 3 8 11 13 19 12 17
-3 65 65 61 85 -2 8 1 11 7 8 5 -4 13 -1 17 5 5 8 3 9 -6 4 -10 -6 -12 -4 -7
9 4 10 7 21 7 24 0 4 4 1 9 -6 7 -11 9 -10 14 3 4 9 3 13 -3 10 -13 -8 -13 -2
2 30 7 16 14 21 18 14 5 -7 9 -5 13 6 4 9 3 13 -3 10 -12 -8 -12 -3 0 29 6 17
6 34 -1 48 -8 21 -9 20 -4 -5z m-1387 -132 c-3 -3 -9 2 -12 12 -6 14 -5 15 5
6 7 -7 10 -15 7 -18z m1302 -95 c-11 -16 -26 -33 -32 -36 -7 -4 1 9 16 29 34
44 46 50 16 7z m-62 -38 c-12 -15 -41 -43 -63 -63 -79 -68 -79 -63 0 13 86 83
101 94 63 50z m-998 -105 c30 -24 28 -24 -11 3 -26 17 -64 50 -85 73 l-39 41
50 -44 c28 -25 66 -58 85 -73z m970 50 c0 -2 -15 -16 -32 -33 l-33 -29 29 33
c28 30 36 37 36 29z m-990 -64 c0 -8 -38 17 -51 33 -9 11 -2 9 19 -6 17 -13
32 -25 32 -27z m915 -3 c-3 -5 -16 -15 -28 -21 -19 -9 -19 -8 3 10 28 23 34
26 25 11z m-884 -17 c13 -16 12 -17 -3 -4 -17 13 -22 21 -14 21 2 0 10 -8 17
-17z m830 4 c-6 -8 -8 -17 -4 -20 11 -12 -146 -79 -169 -71 -14 4 -18 2 -14
-5 8 -12 0 -13 -27 -2 -14 5 -9 9 22 17 22 6 38 7 35 3 -6 -11 -1 -11 21 -3 9
4 12 10 7 13 -5 3 12 16 39 28 27 12 47 18 44 12 -8 -12 6 -11 25 1 13 8 13
10 1 10 -11 0 -9 4 5 15 24 18 30 19 15 2z m-751 -35 c-6 -2 -3 -10 7 -18 10
-8 -1 -6 -24 6 -24 11 -43 23 -43 26 0 2 9 0 19 -6 28 -15 35 -12 20 7 -13 15
-12 15 9 2 12 -8 17 -16 12 -17z m118 -53 c-19 -13 -36 -11 -18 2 12 8 10 9
-10 5 -14 -3 -32 -1 -40 5 -11 8 -9 9 9 4 15 -5 21 -4 17 4 -5 7 3 7 25 -1 23
-8 27 -13 17 -19z m42 -9 c-8 -5 -22 -10 -30 -10 -13 0 -13 1 0 10 8 5 22 10
30 10 13 0 13 -1 0 -10z m56 -9 c-3 -5 15 -6 41 -3 32 3 44 2 39 -6 -3 -6 -25
-10 -49 -8 -23 2 -53 4 -67 5 -20 1 -22 3 -10 11 19 12 53 13 46 1z m304 -1
c12 -7 7 -10 -17 -12 -18 -1 -45 -3 -60 -5 -16 -2 -53 -5 -83 -7 -30 -2 -39
-2 -20 1 19 2 44 8 55 13 18 8 48 14 95 18 8 1 22 -3 30 -8z M1210 215 c-14 -8 -20 -14 -15 -14 6 0 21 6 35 14 14 8 21 14 15 14
-5 0 -21 -6 -35 -14z M379 1653 c-13 -17 -13 -17 6 -3 11 8 22 16 24 17 2 2 0 3 -6 3 -6 0
-17 -8 -24 -17z M1421 1638 c24 -17 46 -34 49 -37 3 -3 30 -28 60 -56 l55 -50 -50 53
c-49 52 -135 122 -150 122 -5 0 12 -14 36 -32z M324 1608 l-19 -23 23 19 c21 18 27 26 19 26 -2 0 -12 -10 -23 -22z M244 1538 l-19 -23 23 19 c21 18 27 26 19 26 -2 0 -12 -10 -23 -22z M179 1463 c-13 -16 -12 -17 4 -4 9 7 17 15 17 17 0 8 -8 3 -21 -13z M153 1428 c-15 -20 -25 -38 -20 -38 3 0 12 11 21 25 17 26 16 35 -1
13z M60 1269 c-7 -11 -10 -23 -7 -25 2 -2 9 7 15 21 14 30 7 33 -8 4z M5 1110 c-4 -17 -5 -34 -2 -36 2 -3 7 10 11 27 3 18 4 34 2 36 -2 3
-7 -10 -11 -27z M1779 690 c-9 -33 -12 -60 -7 -60 4 0 8 -4 8 -10 0 -5 -3 -9 -7 -9
-20 3 -27 -2 -14 -10 11 -7 7 -22 -19 -80 -18 -39 -39 -71 -46 -71 -7 0 -18
-10 -24 -22 -11 -22 -10 -22 4 -4 18 23 21 14 5 -15 -5 -11 -14 -17 -19 -14
-5 3 -12 0 -16 -6 -4 -8 -3 -9 4 -5 7 4 12 2 12 -3 0 -6 -6 -11 -13 -11 -18 0
-59 -44 -50 -53 8 -8 -73 -94 -132 -140 -22 -17 -4 5 41 49 44 43 55 56 25 28
-70 -63 -126 -106 -169 -128 -19 -10 -30 -21 -26 -28 4 -6 3 -8 -3 -5 -6 4
-37 -5 -69 -19 -33 -15 -99 -37 -149 -49 l-90 -23 388 -1 388 -2 -1 376 c-1
206 -3 375 -4 375 -1 0 -8 -27 -17 -60z m8 -42 c-3 -8 -6 -5 -6 6 -1 11 2 17
5 13 3 -3 4 -12 1 -19z m-159 -308 c-7 -11 -17 -20 -22 -20 -5 0 -1 9 9 20 10
11 20 20 22 20 2 0 -2 -9 -9 -20z m-218 -205 c-7 -8 -17 -15 -23 -15 -6 0 -2
7 9 15 25 19 30 19 14 0z m-90 -51 c0 -6 -107 -54 -118 -53 -4 0 20 13 53 29
71 33 65 31 65 24z m-163 -70 c-3 -3 -12 -4 -19 -1 -8 3 -5 6 6 6 11 1 17 -2
13 -5z M2 715 c0 -11 3 -29 8 -40 11 -25 11 1 0 35 -6 20 -8 21 -8 5z M0 325 l0 -326 393 2 c345 2 384 4 327 15 -36 7 -87 20 -115 29 -80
27 -220 103 -269 146 -25 22 -50 38 -54 35 -5 -3 -22 9 -38 27 l-29 32 34 -30
c25 -21 19 -12 -19 33 -29 34 -55 62 -58 62 -3 0 4 -10 16 -23 12 -13 22 -27
22 -30 0 -4 -13 8 -30 26 -31 36 -39 53 -17 41 6 -4 3 2 -7 14 -23 26 -34 30
-15 5 13 -16 12 -17 -4 -4 -10 8 -16 20 -13 28 3 7 1 13 -4 13 -5 0 -19 18
-31 41 -13 26 -16 39 -7 34 7 -3 5 0 -4 8 -10 8 -15 17 -12 20 3 3 1 14 -6 24
-11 17 -11 17 -5 -2 4 -13 3 -16 -3 -10 -5 6 -13 21 -17 34 -5 18 -4 22 6 17
8 -4 6 -1 -3 7 -20 16 -25 32 -6 21 7 -4 8 -3 4 5 -4 6 -12 9 -17 6 -5 -4 -9
-2 -9 4 0 5 6 12 13 14 7 3 5 6 -5 6 -17 1 -18 -21 -18 -324z m395 -189 c22
-14 36 -26 32 -26 -13 0 -92 56 -107 77 -11 14 -9 13 10 -3 14 -12 43 -33 65
-48z m125 -66 c8 -5 11 -10 5 -10 -5 0 -17 5 -25 10 -8 5 -10 10 -5 10 6 0 17
-5 25 -10z m45 -28 c-3 -3 -11 0 -18 7 -9 10 -8 11 6 5 10 -3 15 -9 12 -12z
m50 -12 c13 -6 15 -9 5 -9 -8 0 -22 4 -30 9 -18 12 -2 12 25 0z m52 -16 c-3
-3 -12 -4 -19 -1 -8 3 -5 6 6 6 11 1 17 -2 13 -5z M1732 545 c-17 -37 -14 -45 4 -12 9 16 14 31 11 33 -2 2 -9 -7 -15
-21z M1700 480 c-6 -11 -8 -20 -6 -20 3 0 10 9 16 20 6 11 8 20 6 20 -3 0
-10 -9 -16 -20z M106 447 c3 -10 9 -15 12 -12 3 3 0 11 -7 18 -10 9 -11 8 -5 -6z" fill="#5a8bbe" fill-rule="evenodd"/>
</svg>
