<svg xmlns="http://www.w3.org/2000/svg" viewBox="0 0 64 64">
  <!-- Dark theme variant — lighter ring on dark background -->
  <circle cx="32" cy="32" r="29" fill="none" stroke="#6ba0d4" stroke-width="3.2"/>
  <!-- Dark gap ring -->
  <circle cx="32" cy="32" r="25" fill="#0b1120"/>
  <!-- Inner filled circle (lighter blue for dark bg) -->
  <circle cx="32" cy="32" r="23" fill="#5a8bbe"/>
  <!-- Custom BriefPro "B" with top-left notch -->
  <path d="
    M23 16 L23 48 L34 48
    C37.5 48 40 47.2 41.8 45.5
    C43.5 43.9 44.3 41.6 44.3 38.8
    C44.3 36.5 43.6 34.6 42 33.2
    C41 32.3 39.7 31.8 38.2 31.5
    C39.5 31.1 40.6 30.4 41.4 29.4
    C42.4 28.2 42.9 26.7 42.9 25
    C42.9 22.6 42 20.7 40.3 19.3
    C38.6 17.8 36.2 17 33 17
    L27.2 17 L27.2 22
    L23 22 L23 16
    Z
    M27.2 22 L33 22
    C34.5 22 35.7 22.4 36.5 23.1
    C37.3 23.8 37.7 24.8 37.7 26
    C37.7 27.2 37.3 28.2 36.5 28.9
    C35.7 29.5 34.5 29.8 33 29.8
    L27.2 29.8 Z
    M27.2 34.2 L34 34.2
    C35.7 34.2 37 34.6 38 35.4
    C39 36.2 39.5 37.3 39.5 38.8
    C39.5 40.2 39 41.3 38 42.1
    C37 42.9 35.7 43.3 34 43.3
    L27.2 43.3 Z
  " fill="#fff" fill-rule="evenodd"/>
</svg>
