<svg xmlns="http://www.w3.org/2000/svg" viewBox="0 0 38.79 38.63">
<rect width="38.79" height="38.63" fill="#0b1120"/>
<path d="M785 1700 c-336 -51 -610 -304 -681 -632 -22 -104 -20 -264 5 -361
63 -241 216 -429 436 -536 120 -58 206 -76 360 -76 153 1 244 23 365 87 154
81 264 192 344 348 53 101 73 169 86 278 45 395 -215 772 -601 871 -92 23
-233 33 -314 21z m290 -107 c87 -21 193 -75 272 -138 388 -309 343 -921 -86
-1175 -188 -111 -423 -130 -626 -51 -145 56 -280 171 -359 306 -69 118 -88
187 -93 336 -5 107 -2 137 16 204 46 167 162 330 299 422 160 106 385 144 577
96z M574 1125 c0 -88 2 -123 3 -77 2 46 2 118 0 160 -1 42 -3 5 -3 -83z M1120 1215 c13 -14 26 -25 28 -25 3 0 -5 11 -18 25 -13 14 -26 25
-28 25 -3 0 5 -11 18 -25z M752 1173 c37 -2 100 -2 140 0 40 1 10 3 -67 3 -77 0 -110 -1 -73 -3z M1063 1065 c0 -22 2 -30 4 -17 2 12 2 30 0 40 -3 9 -5 -1 -4 -23z M1181 1074 c0 -11 3 -14 6 -6 3 7 2 16 -1 19 -3 4 -6 -2 -5 -13z M773 953 c37 -2 96 -2 130 0 34 2 4 3 -68 3 -71 0 -99 -1 -62 -3z M624 908 l-19 -23 23 19 c21 18 27 26 19 26 -2 0 -12 -10 -23 -22z M1095 921 c-3 -5 -2 -12 3 -15 5 -3 9 1 9 9 0 17 -3 19 -12 6z M803 853 c31 -2 83 -2 115 0 31 2 5 3 -58 3 -63 0 -89 -1 -57 -3z M575 665 l0 -150 210 0 210 -1 -207 3 -207 3 -4 148 -3 147 1 -150z M1091 764 c0 -11 3 -14 6 -6 3 7 2 16 -1 19 -3 4 -6 -2 -5 -13z M1212 740 c0 -14 2 -19 5 -12 2 6 2 18 0 25 -3 6 -5 1 -5 -13z M1091 704 c0 -11 3 -14 6 -6 3 7 2 16 -1 19 -3 4 -6 -2 -5 -13z M1211 694 c0 -11 3 -14 6 -6 3 7 2 16 -1 19 -3 4 -6 -2 -5 -13z" fill="#5a8bbe" fill-rule="evenodd"/>
<path d="M580 1124 l0 -157 24 22 c13 12 36 25 52 30 28 7 29 9 32 85 l3 78
152 -4 c123 -3 157 -7 178 -21 48 -32 62 -96 32 -147 -26 -45 -56 -53 -220
-59 -165 -6 -180 -12 -227 -75 -19 -25 -21 -44 -24 -192 l-3 -164 223 0 c233
0 274 5 328 43 58 39 74 70 78 150 2 61 -1 78 -20 112 -13 22 -41 51 -61 65
l-38 24 26 19 c55 41 81 143 54 214 -14 38 -56 80 -104 106 -37 20 -58 22
-262 25 l-223 4 0 -158z m419 -275 c67 -14 101 -53 101 -115 0 -34 -6 -51 -29
-76 l-29 -33 -176 -3 -176 -3 0 91 c0 98 9 126 43 140 31 12 207 12 266 -1z" fill="#e8edf3" fill-rule="evenodd"/>
</svg>
